<?xml version="1.0" encoding="utf-8"?>
<!-- Generator: Adobe Illustrator 25.0.0, SVG Export Plug-In . SVG Version: 6.00 Build 0)  -->
<svg version="1.1" id="Layer_1" xmlns="http://www.w3.org/2000/svg" xmlns:xlink="http://www.w3.org/1999/xlink" x="0px" y="0px"
	 viewBox="0 0 56 48" style="enable-background:new 0 0 56 48;" xml:space="preserve">
<path d="M6.2,35.1h11.1l4.5,7.4c0,0,0,0,0,0c0.3,0.4,0.7,0.7,1.2,0.7c0.5,0,1-0.3,1.2-0.7c0,0,0,0,0,0l1.7-2.8h4.4l3.9,6.5
	c0,0,0,0,0,0c0.3,0.4,0.7,0.6,1.2,0.6c0.5,0,0.9-0.2,1.2-0.6c0,0,0,0,0,0l3.9-6.5h10c2.5,0,4.6-2.1,4.6-4.6V15
	c0-2.5-2.1-4.6-4.6-4.6h-5.3V7.2c0-2.8-2.3-5.1-5.1-5.1H6.2c-2.8,0-5.1,2.3-5.1,5.1V30C1.1,32.8,3.4,35.1,6.2,35.1z M50.4,12.2
	c1.6,0,2.9,1.3,2.9,2.9v20.1c0,1.6-1.3,2.9-2.9,2.9H40c-0.3,0-0.6,0.2-0.7,0.4l-3.9,6.4l-3.9-6.4c-0.2-0.3-0.4-0.4-0.7-0.4h-3.9
	l1.7-2.9H40c2.8,0,5.1-2.3,5.1-5.1V12.2H50.4z M2.8,7.2c0-1.9,1.5-3.4,3.4-3.4H40c1.9,0,3.4,1.5,3.4,3.4V30c0,1.9-1.5,3.4-3.4,3.4
	H28.1c-0.3,0-0.6,0.2-0.7,0.4l-2.7,4.5c-0.1,0.1-0.1,0.1-0.1,0.2l-1.6,2.7l-4.5-7.4c-0.2-0.3-0.4-0.4-0.7-0.4H6.2
	c-1.9,0-3.4-1.5-3.4-3.4V7.2z"/>
<path d="M19.9,24.5c0.3,0.3,0.9,0.3,1.2,0L33,13.2c0.3-0.3,0.4-0.9,0-1.2c-0.3-0.3-0.9-0.4-1.2,0L20.5,22.7l-6.1-6.1
	c-0.3-0.3-0.9-0.3-1.2,0c-0.3,0.3-0.3,0.9,0,1.2L19.9,24.5z"/>
</svg>
